<?xml version="1.0" encoding="utf-8"?>
<!-- Generator: Adobe Illustrator 24.0.1, SVG Export Plug-In . SVG Version: 6.00 Build 0)  -->
<svg version="1.1" id="Layer_1" xmlns="http://www.w3.org/2000/svg" xmlns:xlink="http://www.w3.org/1999/xlink" x="0px" y="0px"
	 viewBox="0 0 60 60" style="enable-background:new 0 0 60 60;" xml:space="preserve">
<style type="text/css">
	.st0{fill:#333333;}
	.st1{fill:#F2FBFE;}
	.st2{clip-path:url(#SVGID_4_);}
	.st3{clip-path:url(#SVGID_8_);fill:#F2FBFE;}
	.st4{clip-path:url(#SVGID_12_);}
	.st5{clip-path:url(#SVGID_14_);fill:#F2FBFE;}
	.st6{clip-path:url(#SVGID_16_);}
	.st7{clip-path:url(#SVGID_20_);fill:#F2FBFE;}
	.st8{clip-path:url(#SVGID_24_);}
	.st9{clip-path:url(#SVGID_26_);fill:#333333;}
	.st10{fill:#FFF4F4;}
	.st11{clip-path:url(#SVGID_28_);}
	.st12{clip-path:url(#SVGID_30_);fill:#FFF4F4;}
	.st13{clip-path:url(#SVGID_32_);}
	.st14{clip-path:url(#SVGID_34_);fill:#FFF4F4;}
</style>
<circle class="st0" cx="100.3" cy="-98.2" r="30"/>
<g>
	<g>
		<g>
			<path id="SVGID_1_" class="st1" d="M114.3-93.7c-0.2,0.1-0.3,0.2-0.5,0.3c-0.1,0.1-0.3,0.2-0.4,0.3c0,0.3,0.1,0.7,0.1,1.1
				c0.1,0.9,0,1.7-0.4,2.5c-0.2,0.4-0.3,0.7-0.5,1c0.1,0.2,0.2,0.3,0.3,0.4s0.2,0.2,0.3,0.3c0.5-0.1,1-0.4,1.4-0.8
				c1-1.1,1.2-2.7,0.6-4C115.2-93,114.8-93.4,114.3-93.7L114.3-93.7z"/>
		</g>
		<g>
			<defs>
				<path id="SVGID_2_" d="M114.3-93.7c-0.2,0.1-0.3,0.2-0.5,0.3c-0.1,0.1-0.3,0.2-0.4,0.3c0,0.3,0.1,0.7,0.1,1.1
					c0.1,0.9,0,1.7-0.4,2.5c-0.2,0.4-0.3,0.7-0.5,1c0.1,0.2,0.2,0.3,0.3,0.4s0.2,0.2,0.3,0.3c0.5-0.1,1-0.4,1.4-0.8
					c1-1.1,1.2-2.7,0.6-4C115.2-93,114.8-93.4,114.3-93.7L114.3-93.7z"/>
			</defs>
			<use xlink:href="#SVGID_2_"  style="overflow:visible;fill:#F2FBFE;"/>
			<clipPath id="SVGID_4_">
				<use xlink:href="#SVGID_2_"  style="overflow:visible;"/>
			</clipPath>
			<g class="st2">
				<g>
					<rect id="SVGID_3_" x="-29.2" y="-1101.7" class="st1" width="1300" height="5617"/>
				</g>
				<g>
					<defs>
						<rect id="SVGID_6_" x="-29.2" y="-1101.7" width="1300" height="5617"/>
					</defs>
					<use xlink:href="#SVGID_6_"  style="overflow:visible;fill:#F2FBFE;"/>
					<clipPath id="SVGID_8_">
						<use xlink:href="#SVGID_6_"  style="overflow:visible;"/>
					</clipPath>
					<rect x="107.8" y="-98.7" class="st3" width="13" height="16"/>
				</g>
			</g>
		</g>
	</g>
	<g>
		<g>
			<path id="SVGID_5_" class="st1" d="M117.2-87.4c-0.4,0.6-0.9,1.3-1.4,1.9c0.1,0.2,0.2,0.3,0.3,0.5c0.2,0.2,0.4,0.4,0.4,0.3l0,0
				c1-0.4,1.8-1,2.5-1.7c1.8-2,2.3-4.7,1.1-7.1c-0.4-0.8-1-1.6-1.9-2.2c0,0-0.3,0.1-0.6,0.3c-0.3,0.2-0.4,0.3-0.4,0.3l0,0
				c0.3,0.7,0.6,1.4,0.8,2.1C118.6-91.1,118.3-89.1,117.2-87.4L117.2-87.4z"/>
		</g>
		<g>
			<defs>
				<path id="SVGID_10_" d="M117.2-87.4c-0.4,0.6-0.9,1.3-1.4,1.9c0.1,0.2,0.2,0.3,0.3,0.5c0.2,0.2,0.4,0.4,0.4,0.3l0,0
					c1-0.4,1.8-1,2.5-1.7c1.8-2,2.3-4.7,1.1-7.1c-0.4-0.8-1-1.6-1.9-2.2c0,0-0.3,0.1-0.6,0.3c-0.3,0.2-0.4,0.3-0.4,0.3l0,0
					c0.3,0.7,0.6,1.4,0.8,2.1C118.6-91.1,118.3-89.1,117.2-87.4L117.2-87.4z"/>
			</defs>
			<use xlink:href="#SVGID_10_"  style="overflow:visible;fill:#F2FBFE;"/>
			<clipPath id="SVGID_12_">
				<use xlink:href="#SVGID_10_"  style="overflow:visible;"/>
			</clipPath>
			<g class="st4">
				<g>
					<rect id="SVGID_7_" x="-29.2" y="-1101.7" class="st1" width="1300" height="5617"/>
				</g>
				<g>
					<defs>
						<rect id="SVGID_13_" x="-29.2" y="-1101.7" width="1300" height="5617"/>
					</defs>
					<use xlink:href="#SVGID_13_"  style="overflow:visible;fill:#F2FBFE;"/>
					<clipPath id="SVGID_14_">
						<use xlink:href="#SVGID_13_"  style="overflow:visible;"/>
					</clipPath>
					<rect x="110.8" y="-100.7" class="st5" width="15" height="21"/>
				</g>
			</g>
		</g>
	</g>
	<g>
		<g>
			<path id="SVGID_9_" class="st1" d="M113.5-100.4c-0.1-0.1-0.1-0.2-0.2-0.2c-0.1-0.1-0.3-0.3-0.4-0.4c-0.2-0.2-0.4-0.3-0.7-0.4
				l-0.5-0.3c-0.3-0.2-0.6-0.4-0.8-0.7c-0.2-0.2-0.5-0.5-0.7-0.8c-0.2-0.3-0.3-0.6-0.5-0.9c-0.1-0.3-0.2-0.7-0.3-1
				c0-0.2,0-0.3-0.1-0.5l-0.1-0.7l0,0c-0.1-0.9-0.2-1.8-0.5-2.7c-0.2-0.9-0.6-1.8-1.1-2.6c-0.2-0.4-0.5-0.8-0.8-1.2s-0.6-0.7-1-1.1
				c-1.4-1.3-3.1-2.1-5-2.5c-0.2-0.1-0.4-0.1-0.7-0.1l-0.7-0.1c-0.5-0.1-0.9-0.1-1.4-0.1l0,0c-0.9-0.1-1.8-0.1-2.7,0
				c-3.6,0.2-7,1.6-9.7,4c-1.3,1.2-2.3,2.6-3,4.1c-1.6,3.7-1.6,7.9,0.2,11.4c0.2,0.3,0.3,0.6,0.5,1l0.5,0.8c1.2,2,1.8,4.3,1.9,6.6
				c0.1,1.9-0.3,3.8-1,5.5c-0.1,0.1-0.1,0.3,0,0.5c0.1,0.1,0.2,0.3,0.3,0.3c0.3,0.1,0.6-0.1,0.7-0.4c0.9-1.9,1.4-3.9,1.4-6
				c0-2.6-0.6-5.1-1.8-7.4l-0.5-0.9c-0.2-0.3-0.3-0.5-0.4-0.8l0,0c-1.5-3.1-1.5-6.7,0-9.9c0.6-1.3,1.5-2.5,2.6-3.5
				c2.3-2,5.3-3.2,8.4-3.4c0.8,0,1.6,0,2.4,0c0.4,0,0.8,0.1,1.2,0.1l0.6,0.1l0,0c0.2,0,0.4,0.1,0.6,0.1c1.5,0.3,2.9,1,4,2
				c0.3,0.2,0.5,0.5,0.8,0.8c0.2,0.3,0.4,0.6,0.6,0.9c0.4,0.7,0.7,1.4,0.9,2.1c0.2,0.7,0.4,1.5,0.4,2.3v0.3c0,0.1,0,0.2,0,0.3l0,0
				c0,0.2,0,0.5,0.1,0.7c0.1,0.5,0.2,1,0.4,1.4c0.2,0.5,0.4,0.9,0.7,1.3c0.3,0.4,0.6,0.8,1,1.1c0.4,0.3,0.7,0.6,1.1,0.9l0.6,0.4
				c0.1,0.1,0.3,0.1,0.4,0.2l0,0l0,0c0,0,0,0.1,0,0.2s0,0.1,0,0.2c0,0.1,0,0.1-0.1,0.2c-0.5,0.4-1,0.7-1.6,0.9
				c-0.5,0.1-0.8,0.6-0.8,1.1l0.1,2.3l-0.3,0.1c-0.4,0.1-0.7,0.1-1.1,0.2c-0.4,0-0.7,0.1-1.1,0.1h-0.4l0,0c-0.1,0-0.2,0-0.3,0
				c-0.4,0.1-0.8,0.3-1.1,0.6c-0.3,0.3-0.4,0.7-0.4,1.1c0,0.2,0,0.4,0.1,0.6c0,0.1,0.1,0.2,0.1,0.3c0.2,0.4,0.5,0.8,0.8,1.2
				c0.6,0.7,1.5,1.1,2.3,1.4c0.2,0,0.4,0.1,0.6,0.1l-0.1,0.3c0,0.1,0,0.2-0.1,0.3c0,0.2-0.1,0.4-0.1,0.6l0,0c0,0.2,0,0.4,0,0.7
				c0,0.1,0,0.1,0,0.2l0,0v0.1l0,0l0,0c0,0.1,0,0.1,0,0.2c0.2,0.9-0.3,1.7-1.2,2c-0.1,0-0.1,0-0.2,0h-0.2l-0.4,0.1
				c-0.3,0-0.6,0.1-0.9,0.1c-0.6,0.1-1.2,0.1-1.7,0.1c-1.1,0-2.1-0.1-3.2-0.3c-0.9-0.2-1.8-0.5-2.7-0.9c-0.7-0.4-1.4-0.8-2-1.4
				c-0.2-0.2-0.6-0.3-0.8-0.1c-0.1,0.1-0.2,0.3-0.2,0.4c0,0.2,0.1,0.3,0.2,0.4c0.6,0.7,1.4,1.3,2.2,1.8c0.7,0.4,1.5,0.8,2.3,1
				c-0.5,1-0.4,2.9,0.3,3.6c0.2,0,0.4,0,0.6,0c0.2,0,0.3,0,0.5,0c0.6-0.6,0.7-2.1,0.4-3.2c0.8,0.1,1.5,0.2,2.3,0.2
				c0.6,0,1.2,0,1.9,0c0.3,0,0.6,0,1-0.1l0.5-0.1h0.2c0.1,0,0.2,0,0.3-0.1l0,0c0.9-0.2,1.6-0.7,2.1-1.4c0.5-0.8,0.7-1.7,0.5-2.6
				c0-0.1,0-0.2-0.1-0.3v-0.1l0,0c0-0.1,0-0.2,0-0.4c0-0.1,0-0.3,0.1-0.4c0-0.1,0-0.1,0-0.2l0.1-0.2l0.7,0.2l0,0
				c0.1-0.2,0.1-0.4,0-0.6c0-0.4-0.3-0.8-0.6-1.1c-0.2-0.1-0.4-0.2-0.6-0.3l-0.3-0.1c-0.2,0-0.3-0.1-0.4-0.1c-0.5-0.1-1-0.4-1.4-0.8
				c-0.2-0.2-0.3-0.4-0.4-0.6h0.2c0.4,0,0.8,0,1.3-0.1c0.4-0.1,0.8-0.1,1.3-0.2c0.4-0.1,0.9-0.2,1.3-0.3c0.4-0.1,0.7-0.5,0.7-1l0,0
				l-0.1-2.3l0,0c0.7-0.3,1.3-0.6,1.8-1.1c0.1-0.1,0.2-0.2,0.3-0.3s0.2-0.3,0.3-0.5c0.3-0.7,0.3-1.4,0-2.1
				C113.5-100.2,113.5-100.3,113.5-100.4L113.5-100.4z"/>
		</g>
		<g>
			<defs>
				<path id="SVGID_15_" d="M113.5-100.4c-0.1-0.1-0.1-0.2-0.2-0.2c-0.1-0.1-0.3-0.3-0.4-0.4c-0.2-0.2-0.4-0.3-0.7-0.4l-0.5-0.3
					c-0.3-0.2-0.6-0.4-0.8-0.7c-0.2-0.2-0.5-0.5-0.7-0.8c-0.2-0.3-0.3-0.6-0.5-0.9c-0.1-0.3-0.2-0.7-0.3-1c0-0.2,0-0.3-0.1-0.5
					l-0.1-0.7l0,0c-0.1-0.9-0.2-1.8-0.5-2.7c-0.2-0.9-0.6-1.8-1.1-2.6c-0.2-0.4-0.5-0.8-0.8-1.2s-0.6-0.7-1-1.1
					c-1.4-1.3-3.1-2.1-5-2.5c-0.2-0.1-0.4-0.1-0.7-0.1l-0.7-0.1c-0.5-0.1-0.9-0.1-1.4-0.1l0,0c-0.9-0.1-1.8-0.1-2.7,0
					c-3.6,0.2-7,1.6-9.7,4c-1.3,1.2-2.3,2.6-3,4.1c-1.6,3.7-1.6,7.9,0.2,11.4c0.2,0.3,0.3,0.6,0.5,1l0.5,0.8c1.2,2,1.8,4.3,1.9,6.6
					c0.1,1.9-0.3,3.8-1,5.5c-0.1,0.1-0.1,0.3,0,0.5c0.1,0.1,0.2,0.3,0.3,0.3c0.3,0.1,0.6-0.1,0.7-0.4c0.9-1.9,1.4-3.9,1.4-6
					c0-2.6-0.6-5.1-1.8-7.4l-0.5-0.9c-0.2-0.3-0.3-0.5-0.4-0.8l0,0c-1.5-3.1-1.5-6.7,0-9.9c0.6-1.3,1.5-2.5,2.6-3.5
					c2.3-2,5.3-3.2,8.4-3.4c0.8,0,1.6,0,2.4,0c0.4,0,0.8,0.1,1.2,0.1l0.6,0.1l0,0c0.2,0,0.4,0.1,0.6,0.1c1.5,0.3,2.9,1,4,2
					c0.3,0.2,0.5,0.5,0.8,0.8c0.2,0.3,0.4,0.6,0.6,0.9c0.4,0.7,0.7,1.4,0.9,2.1c0.2,0.7,0.4,1.5,0.4,2.3v0.3c0,0.1,0,0.2,0,0.3l0,0
					c0,0.2,0,0.5,0.1,0.7c0.1,0.5,0.2,1,0.4,1.4c0.2,0.5,0.4,0.9,0.7,1.3c0.3,0.4,0.6,0.8,1,1.1c0.4,0.3,0.7,0.6,1.1,0.9l0.6,0.4
					c0.1,0.1,0.3,0.1,0.4,0.2l0,0l0,0c0,0,0,0.1,0,0.2s0,0.1,0,0.2c0,0.1,0,0.1-0.1,0.2c-0.5,0.4-1,0.7-1.6,0.9
					c-0.5,0.1-0.8,0.6-0.8,1.1l0.1,2.3l-0.3,0.1c-0.4,0.1-0.7,0.1-1.1,0.2c-0.4,0-0.7,0.1-1.1,0.1h-0.4l0,0c-0.1,0-0.2,0-0.3,0
					c-0.4,0.1-0.8,0.3-1.1,0.6c-0.3,0.3-0.4,0.7-0.4,1.1c0,0.2,0,0.4,0.1,0.6c0,0.1,0.1,0.2,0.1,0.3c0.2,0.4,0.5,0.8,0.8,1.2
					c0.6,0.7,1.5,1.1,2.3,1.4c0.2,0,0.4,0.1,0.6,0.1l-0.1,0.3c0,0.1,0,0.2-0.1,0.3c0,0.2-0.1,0.4-0.1,0.6l0,0c0,0.2,0,0.4,0,0.7
					c0,0.1,0,0.1,0,0.2l0,0v0.1l0,0l0,0c0,0.1,0,0.1,0,0.2c0.2,0.9-0.3,1.7-1.2,2c-0.1,0-0.1,0-0.2,0h-0.2l-0.4,0.1
					c-0.3,0-0.6,0.1-0.9,0.1c-0.6,0.1-1.2,0.1-1.7,0.1c-1.1,0-2.1-0.1-3.2-0.3c-0.9-0.2-1.8-0.5-2.7-0.9c-0.7-0.4-1.4-0.8-2-1.4
					c-0.2-0.2-0.6-0.3-0.8-0.1c-0.1,0.1-0.2,0.3-0.2,0.4c0,0.2,0.1,0.3,0.2,0.4c0.6,0.7,1.4,1.3,2.2,1.8c0.7,0.4,1.5,0.8,2.3,1
					c-0.5,1-0.4,2.9,0.3,3.6c0.2,0,0.4,0,0.6,0c0.2,0,0.3,0,0.5,0c0.6-0.6,0.7-2.1,0.4-3.2c0.8,0.1,1.5,0.2,2.3,0.2
					c0.6,0,1.2,0,1.9,0c0.3,0,0.6,0,1-0.1l0.5-0.1h0.2c0.1,0,0.2,0,0.3-0.1l0,0c0.9-0.2,1.6-0.7,2.1-1.4c0.5-0.8,0.7-1.7,0.5-2.6
					c0-0.1,0-0.2-0.1-0.3v-0.1l0,0c0-0.1,0-0.2,0-0.4c0-0.1,0-0.3,0.1-0.4c0-0.1,0-0.1,0-0.2l0.1-0.2l0.7,0.2l0,0
					c0.1-0.2,0.1-0.4,0-0.6c0-0.4-0.3-0.8-0.6-1.1c-0.2-0.1-0.4-0.2-0.6-0.3l-0.3-0.1c-0.2,0-0.3-0.1-0.4-0.1
					c-0.5-0.1-1-0.4-1.4-0.8c-0.2-0.2-0.3-0.4-0.4-0.6h0.2c0.4,0,0.8,0,1.3-0.1c0.4-0.1,0.8-0.1,1.3-0.2c0.4-0.1,0.9-0.2,1.3-0.3
					c0.4-0.1,0.7-0.5,0.7-1l0,0l-0.1-2.3l0,0c0.7-0.3,1.3-0.6,1.8-1.1c0.1-0.1,0.2-0.2,0.3-0.3s0.2-0.3,0.3-0.5
					c0.3-0.7,0.3-1.4,0-2.1C113.5-100.2,113.5-100.3,113.5-100.4L113.5-100.4z"/>
			</defs>
			<use xlink:href="#SVGID_15_"  style="overflow:visible;fill:#F2FBFE;"/>
			<clipPath id="SVGID_16_">
				<use xlink:href="#SVGID_15_"  style="overflow:visible;"/>
			</clipPath>
			<g class="st6">
				<g>
					<rect id="SVGID_11_" x="-29.2" y="-1101.7" class="st1" width="1300" height="5617"/>
				</g>
				<g>
					<defs>
						<rect id="SVGID_18_" x="-29.2" y="-1101.7" width="1300" height="5617"/>
					</defs>
					<use xlink:href="#SVGID_18_"  style="overflow:visible;fill:#F2FBFE;"/>
					<clipPath id="SVGID_20_">
						<use xlink:href="#SVGID_18_"  style="overflow:visible;"/>
					</clipPath>
					<rect x="76.8" y="-121.7" class="st7" width="42" height="47"/>
				</g>
			</g>
		</g>
	</g>
</g>
<g>
	<g>
		<defs>
			<circle id="SVGID_22_" cx="30" cy="30" r="30"/>
		</defs>
		<clipPath id="SVGID_24_">
			<use xlink:href="#SVGID_22_"  style="overflow:visible;"/>
		</clipPath>
		<g class="st8">
			<g>
				<defs>
					<rect id="SVGID_25_" x="-102" y="-2832" width="1300" height="5617"/>
				</defs>
				<clipPath id="SVGID_26_">
					<use xlink:href="#SVGID_25_"  style="overflow:visible;"/>
				</clipPath>
				<rect x="-5" y="-5" class="st9" width="70" height="70"/>
			</g>
		</g>
	</g>
</g>
<g>
	<g>
		<path id="SVGID_17_" class="st10" d="M45.9,12.3h-3.3c-0.4,0-0.8,0.4-0.8,0.8c0,0.4,0.4,0.8,0.8,0.8h2.5v2.7h-2.4
			c-0.2,0-0.4,0.1-0.6,0.2c-0.1,0.1-0.2,0.3-0.2,0.6v2.5c0,0.2,0.1,0.4,0.2,0.6c0.1,0.1,0.3,0.2,0.6,0.2h2.4v6h-2.8l0,0
			c-0.2,0-0.4,0.1-0.6,0.2c-0.1,0.1-0.2,0.3-0.2,0.6v5c0,0.2,0.1,0.4,0.2,0.6c0.1,0.1,0.3,0.2,0.6,0.2h2.8v5.2h-2.4
			c-0.2,0-0.4,0.1-0.6,0.2c-0.1,0.1-0.2,0.3-0.2,0.6v7.8H18.7c-0.8,0-1.6-0.3-2.1-0.9c-0.6-0.6-0.9-1.3-0.9-2.1s0.3-1.6,0.9-2.1
			c0.6-0.6,1.3-0.9,2.1-0.9h18.4c0.2,0,0.4-0.1,0.6-0.2c0.1-0.1,0.2-0.3,0.2-0.6V30.1c1.7-0.5,2.8-2,2.7-3.8
			c0.1-1.7-1.1-3.3-2.7-3.8V13c0-0.2-0.1-0.4-0.2-0.6s-0.3-0.2-0.6-0.2H18.9c-2.6,0-4.7,2.1-4.7,4.7v20c0,0.4,0.4,0.8,0.8,0.8
			c0.4,0,0.8-0.4,0.8-0.8v-20c0-1.7,1.4-3.2,3.2-3.2h17.4v9.4c0,0.2,0.1,0.4,0.2,0.6c0.1,0.1,0.3,0.2,0.6,0.2c1.2,0.1,2,1.1,1.9,2.3
			c0.1,1.2-0.8,2.2-1.9,2.3c-0.2,0-0.4,0.1-0.6,0.2c-0.1,0.1-0.2,0.3-0.2,0.6v10.1H18.7c-1.2,0-2.4,0.5-3.2,1.3
			c-0.9,0.9-1.3,2-1.3,3.2s0.5,2.4,1.3,3.2c0.9,0.9,2,1.3,3.2,1.3h24c0.2,0,0.4-0.1,0.6-0.2c0.1-0.1,0.2-0.3,0.2-0.6V40h2.4
			c0.2,0,0.4-0.1,0.6-0.2c0.1-0.1,0.2-0.3,0.2-0.6v-6.8c0-0.2-0.1-0.4-0.2-0.6c-0.1-0.1-0.3-0.2-0.6-0.2h-2.8v-3.4h2.8
			c0.2,0,0.4-0.1,0.6-0.2s0.2-0.3,0.2-0.6v-7.5c0-0.2-0.1-0.4-0.2-0.6c-0.1-0.1-0.3-0.2-0.6-0.2h-2.4v-1h2.4c0.2,0,0.4-0.1,0.6-0.2
			c0.1-0.1,0.2-0.3,0.2-0.6V13c0-0.2-0.1-0.4-0.2-0.6S46.1,12.3,45.9,12.3L45.9,12.3z"/>
	</g>
	<g>
		<defs>
			<path id="SVGID_27_" d="M45.9,12.3h-3.3c-0.4,0-0.8,0.4-0.8,0.8c0,0.4,0.4,0.8,0.8,0.8h2.5v2.7h-2.4c-0.2,0-0.4,0.1-0.6,0.2
				c-0.1,0.1-0.2,0.3-0.2,0.6v2.5c0,0.2,0.1,0.4,0.2,0.6c0.1,0.1,0.3,0.2,0.6,0.2h2.4v6h-2.8l0,0c-0.2,0-0.4,0.1-0.6,0.2
				c-0.1,0.1-0.2,0.3-0.2,0.6v5c0,0.2,0.1,0.4,0.2,0.6c0.1,0.1,0.3,0.2,0.6,0.2h2.8v5.2h-2.4c-0.2,0-0.4,0.1-0.6,0.2
				c-0.1,0.1-0.2,0.3-0.2,0.6v7.8H18.7c-0.8,0-1.6-0.3-2.1-0.9c-0.6-0.6-0.9-1.3-0.9-2.1s0.3-1.6,0.9-2.1c0.6-0.6,1.3-0.9,2.1-0.9
				h18.4c0.2,0,0.4-0.1,0.6-0.2c0.1-0.1,0.2-0.3,0.2-0.6V30.1c1.7-0.5,2.8-2,2.7-3.8c0.1-1.7-1.1-3.3-2.7-3.8V13
				c0-0.2-0.1-0.4-0.2-0.6s-0.3-0.2-0.6-0.2H18.9c-2.6,0-4.7,2.1-4.7,4.7v20c0,0.4,0.4,0.8,0.8,0.8c0.4,0,0.8-0.4,0.8-0.8v-20
				c0-1.7,1.4-3.2,3.2-3.2h17.4v9.4c0,0.2,0.1,0.4,0.2,0.6c0.1,0.1,0.3,0.2,0.6,0.2c1.2,0.1,2,1.1,1.9,2.3c0.1,1.2-0.8,2.2-1.9,2.3
				c-0.2,0-0.4,0.1-0.6,0.2c-0.1,0.1-0.2,0.3-0.2,0.6v10.1H18.7c-1.2,0-2.4,0.5-3.2,1.3c-0.9,0.9-1.3,2-1.3,3.2s0.5,2.4,1.3,3.2
				c0.9,0.9,2,1.3,3.2,1.3h24c0.2,0,0.4-0.1,0.6-0.2c0.1-0.1,0.2-0.3,0.2-0.6V40h2.4c0.2,0,0.4-0.1,0.6-0.2c0.1-0.1,0.2-0.3,0.2-0.6
				v-6.8c0-0.2-0.1-0.4-0.2-0.6c-0.1-0.1-0.3-0.2-0.6-0.2h-2.8v-3.4h2.8c0.2,0,0.4-0.1,0.6-0.2s0.2-0.3,0.2-0.6v-7.5
				c0-0.2-0.1-0.4-0.2-0.6c-0.1-0.1-0.3-0.2-0.6-0.2h-2.4v-1h2.4c0.2,0,0.4-0.1,0.6-0.2c0.1-0.1,0.2-0.3,0.2-0.6V13
				c0-0.2-0.1-0.4-0.2-0.6S46.1,12.3,45.9,12.3L45.9,12.3z"/>
		</defs>
		<use xlink:href="#SVGID_27_"  style="overflow:visible;fill:#FFF4F4;"/>
		<clipPath id="SVGID_28_">
			<use xlink:href="#SVGID_27_"  style="overflow:visible;"/>
		</clipPath>
		<g class="st11">
			<g>
				<rect id="SVGID_19_" x="-102" y="-2832" class="st10" width="1300" height="5617"/>
			</g>
			<g>
				<defs>
					<rect id="SVGID_29_" x="-102" y="-2832" width="1300" height="5617"/>
				</defs>
				<use xlink:href="#SVGID_29_"  style="overflow:visible;fill:#FFF4F4;"/>
				<clipPath id="SVGID_30_">
					<use xlink:href="#SVGID_29_"  style="overflow:visible;"/>
				</clipPath>
				<rect x="9.1" y="7.3" class="st12" width="42.5" height="46.3"/>
			</g>
		</g>
	</g>
</g>
<g>
	<g>
		<path id="SVGID_21_" class="st10" d="M34.2,26.5L34.2,26.5c0-0.1,0.1-0.2,0.2-0.2c0.1,0,0.2,0.1,0.2,0.2
			C34.5,26.7,34.2,26.7,34.2,26.5L34.2,26.5z M35.7,26.5c0-0.6-0.3-1.1-0.8-1.3c-0.5-0.2-1.1-0.1-1.5,0.3s-0.5,1-0.3,1.5
			s0.7,0.8,1.3,0.8C35.1,27.8,35.7,27.2,35.7,26.5L35.7,26.5z"/>
	</g>
	<g>
		<defs>
			<path id="SVGID_31_" d="M34.2,26.5L34.2,26.5c0-0.1,0.1-0.2,0.2-0.2c0.1,0,0.2,0.1,0.2,0.2C34.5,26.7,34.2,26.7,34.2,26.5
				L34.2,26.5z M35.7,26.5c0-0.6-0.3-1.1-0.8-1.3c-0.5-0.2-1.1-0.1-1.5,0.3s-0.5,1-0.3,1.5s0.7,0.8,1.3,0.8
				C35.1,27.8,35.7,27.2,35.7,26.5L35.7,26.5z"/>
		</defs>
		<use xlink:href="#SVGID_31_"  style="overflow:visible;fill:#FFF4F4;"/>
		<clipPath id="SVGID_32_">
			<use xlink:href="#SVGID_31_"  style="overflow:visible;"/>
		</clipPath>
		<g class="st13">
			<g>
				<rect id="SVGID_23_" x="-102" y="-2832" class="st10" width="1300" height="5617"/>
			</g>
			<g>
				<defs>
					<rect id="SVGID_33_" x="-102" y="-2832" width="1300" height="5617"/>
				</defs>
				<use xlink:href="#SVGID_33_"  style="overflow:visible;fill:#FFF4F4;"/>
				<clipPath id="SVGID_34_">
					<use xlink:href="#SVGID_33_"  style="overflow:visible;"/>
				</clipPath>
				<rect x="28" y="20.1" class="st14" width="12.8" height="12.8"/>
			</g>
		</g>
	</g>
</g>
</svg>
